Jump_normalized_Motion_pl03
version=1
nRows=23
nColumns=43
inDegrees=yes
endheader
time		pelvis_tilt		pelvis_list		pelvis_rotation		pelvis_tx		pelvis_ty		pelvis_tz		hip_flexion_r		hip_adduction_r		hip_rotation_r		knee_angle_r		ankle_angle_r		subtalar_angle_r		mtp_angle_r		hip_flexion_l		hip_adduction_l		hip_rotation_l		knee_angle_l		ankle_angle_l		subtalar_angle_l		mtp_angle_l		lumbar_extension		lumbar_bending		lumbar_rotation		neck_flexion		neck_lateral_bending		neck_rotation		arm_flex_r		arm_add_r		arm_rot_r		elbow_flex_r		pro_sup_r		wrist_flex_r		wrist_dev_r		hand_finger_flex_r		arm_flex_l		arm_add_l		arm_rot_l		elbow_flex_l		pro_sup_l		wrist_flex_l		wrist_dev_l		hand_finger_flex_l		
0.515000		-1.812325		-21.876727		88.671992		0.019142		1.845500		1.676197		58.357003		-7.671636		6.603142		-116.481544		21.702174		-5.740992		5.271475		56.602732		-2.073242		4.743533		-118.005203		26.767539		-6.148249		16.801939		-40.088324		-1.428661		1.634326		29.688842		0.667262		-1.143867		133.591424		-8.285472		36.090053		51.379892		67.120100		-27.693517		0.116905		31.300503		130.321408		-2.341949		20.329170		57.464168		99.791851		-22.076147		11.233910		66.635085		
0.518258		-1.756169		-21.264294		88.606576		0.019330		1.848910		1.669279		56.952794		-7.668580		6.486997		-115.921093		20.920468		-5.637112		5.590174		55.221169		-2.206257		4.761395		-117.498319		26.023290		-5.916518		17.774747		-40.430859		-1.460003		1.746580		29.043990		0.648992		-1.186537		133.400152		-8.344977		36.036973		51.310597		67.499091		-27.530328		-0.052842		31.524127		130.032655		-2.357697		20.334685		57.539326		99.861944		-22.039541		11.108843		66.515452		
0.521515		-1.748862		-21.184087		88.563712		0.019375		1.851188		1.662917		56.274106		-7.761037		6.433709		-115.485338		20.083854		-5.342388		5.556176		54.551156		-2.270659		4.756207		-117.088099		25.200944		-5.623700		17.868890		-40.138592		-1.501067		1.862320		28.179664		0.653677		-1.202188		133.081717		-8.501645		36.053310		51.367009		67.518072		-27.507962		-0.060228		31.574715		129.612192		-2.392998		20.412536		57.692304		99.850701		-22.010118		11.111486		66.542891		
0.524773		-1.735679		-20.971767		88.536457		0.019406		1.853860		1.656377		55.435411		-7.828000		6.391560		-115.033546		19.179196		-5.089453		5.517265		53.716362		-2.337818		4.726474		-116.636450		24.307393		-5.317260		17.960755		-39.995036		-1.521927		2.002035		27.284447		0.662101		-1.238661		132.731507		-8.643275		36.064411		51.420320		67.545613		-27.497364		-0.098365		31.627526		129.151178		-2.423366		20.470398		57.840793		99.859565		-22.013858		11.099908		66.567880		
0.528030		-1.703925		-20.430177		88.471876		0.019610		1.856726		1.649302		54.212263		-7.859102		6.320168		-114.536310		18.187621		-4.988017		5.547049		52.536996		-2.428391		4.738931		-116.231565		23.347403		-5.065202		18.213036		-40.199784		-1.581814		2.089603		26.489202		0.621184		-1.302825		132.412102		-8.750683		36.035041		51.413025		67.615573		-27.530058		-0.198954		31.697263		128.730430		-2.405674		20.456332		57.926515		99.937211		-22.096433		11.035773		66.571339		
0.531288		-1.651368		-19.624727		88.454790		0.019714		1.860326		1.641997		52.664790		-7.906343		6.202007		-113.993378		17.213237		-5.078888		5.714616		51.023001		-2.527464		4.692698		-115.714093		22.399208		-4.907673		18.742276		-40.756785		-1.589602		2.235885		25.871518		0.590752		-1.373876		132.192771		-8.850131		36.011152		51.330732		67.749388		-27.585370		-0.346681		31.807816		128.385625		-2.379944		20.459585		57.962654		100.116116		-22.214089		10.910508		66.571363		
0.534545		-1.622830		-19.010422		88.427270		0.019763		1.863477		1.634888		51.401384		-7.978870		6.132786		-113.487059		16.070702		-5.072651		5.866764		49.802624		-2.574142		4.684287		-115.276166		21.214712		-4.763300		19.198463		-41.063618		-1.611450		2.324870		25.072364		0.552402		-1.433003		131.861703		-8.947745		35.999005		51.318056		67.818435		-27.688480		-0.429691		31.889657		127.941003		-2.389952		20.467942		58.031230		100.237744		-22.245182		10.842888		66.607055		
0.537803		-1.615313		-18.671494		88.400604		0.019717		1.865986		1.627963		50.517142		-8.079744		6.077927		-113.067707		15.022016		-4.906209		5.905750		48.939717		-2.607018		4.637538		-114.901424		20.107564		-4.557900		19.387975		-41.032010		-1.634908		2.431972		24.154187		0.579467		-1.466003		131.470807		-9.165980		36.147030		51.394761		67.881172		-27.689219		-0.431489		31.964483		127.398156		-2.509447		20.667219		58.224748		100.317063		-22.169973		10.832038		66.672640		
0.541061		-1.619709		-17.983142		88.345194		0.019829		1.869180		1.620744		49.255301		-8.150519		6.039849		-112.576956		13.704854		-4.983142		6.108852		47.698888		-2.636211		4.559602		-114.490712		18.730483		-4.607813		19.788215		-41.426158		-1.701425		2.502479		23.349086		0.530030		-1.529025		131.119758		-9.270834		36.163480		51.374150		68.018287		-27.862029		-0.526113		32.018802		126.927226		-2.531313		20.677935		58.294132		100.458628		-22.166634		10.805387		66.695357		
0.544318		-1.647003		-17.425603		88.269111		0.019868		1.872065		1.613670		48.216318		-8.241893		6.039725		-112.130979		12.340990		-5.021037		6.310583		46.653156		-2.645133		4.439977		-114.103957		17.292223		-4.734326		20.021312		-41.667135		-1.780466		2.578853		22.501471		0.499681		-1.579780		130.743340		-9.400995		36.250900		51.377895		68.220853		-28.012151		-0.590761		32.063358		126.417990		-2.601283		20.754820		58.398398		100.583898		-22.121083		10.822554		66.706820		
0.547576		-1.658015		-17.070349		88.216410		0.019822		1.874451		1.606735		47.456539		-8.360085		6.020164		-111.748039		11.092536		-4.856374		6.387058		45.892509		-2.678584		4.331506		-113.772740		15.966063		-4.643097		20.096071		-41.657504		-1.831256		2.661946		21.536850		0.549273		-1.618366		130.320975		-9.625177		36.464350		51.446264		68.376068		-28.032377		-0.577798		32.125644		125.829396		-2.766488		20.985014		58.605899		100.670806		-22.015193		10.851814		66.752602		
0.550833		-1.697015		-16.524421		88.125196		0.019835		1.877216		1.599714		46.534683		-8.445192		6.058837		-111.327097		9.518185		-4.970059		6.659787		44.961381		-2.676551		4.171384		-113.398338		14.298433		-4.881574		20.199231		-41.884638		-1.924174		2.710810		20.632496		0.536794		-1.664516		129.919467		-9.755868		36.627102		51.439508		68.751398		-28.175646		-0.620716		32.164906		125.288255		-2.888645		21.116846		58.728841		100.818393		-21.949691		10.910115		66.714053		
0.554091		-1.763428		-15.835705		88.017767		0.019909		1.880248		1.592619		45.473954		-8.528939		6.115677		-110.876705		7.825409		-5.315966		7.246003		43.888964		-2.654672		3.951067		-112.988256		12.502069		-5.385537		20.457213		-42.305532		-2.054152		2.733321		19.843958		0.512105		-1.708285		129.566963		-9.849742		36.784272		51.379601		69.332605		-28.367648		-0.686289		32.231935		124.801223		-2.998709		21.221666		58.831969		101.040972		-21.872609		10.983274		66.608861		
0.557348		-1.774729		-15.501552		87.980383		0.019874		1.882451		1.585910		44.878914		-8.602416		6.164077		-110.533838		6.244188		-5.201548		7.340958		43.339242		-2.662013		3.877746		-112.684233		10.738676		-5.210090		20.432460		-42.297823		-2.090681		2.775924		18.880952		0.520796		-1.733752		129.135950		-9.996966		37.007341		51.368438		69.596681		-28.418163		-0.651930		32.260427		124.219998		-3.151497		21.400536		58.937797		101.104735		-21.780329		11.060509		66.593360		
0.560606		-1.789069		-15.007839		87.917540		0.019794		1.884914		1.579078		44.139562		-8.774675		6.059885		-110.149189		4.495708		-5.538434		7.662436		42.642865		-2.715761		3.642228		-112.353352		8.831987		-5.443550		20.542241		-42.497208		-2.143426		2.859796		18.035301		0.541532		-1.757600		128.775597		-10.152329		37.264547		51.297497		70.134964		-28.537733		-0.663068		32.267821		123.658425		-3.317076		21.592754		59.103248		101.226995		-21.651062		11.172296		66.505456		
0.563864		-1.814317		-14.276816		87.876905		0.019819		1.887903		1.572067		43.102827		-8.782473		6.077865		-109.679210		2.371498		-6.441024		8.591432		41.678729		-2.683097		3.437901		-111.904436		6.565388		-6.230319		21.008814		-42.995017		-2.199600		2.848320		17.309139		0.495434		-1.775625		128.453705		-10.237147		37.537258		51.192056		71.132670		-28.719506		-0.711538		32.294061		123.163302		-3.477233		21.713574		59.222980		101.436323		-21.448665		11.362990		66.249907		
0.567121		-1.811236		-13.963213		87.862365		0.019770		1.889854		1.565509		42.627553		-8.892042		6.042835		-109.350046		0.751379		-6.262695		8.684273		41.304013		-2.739488		3.321257		-111.621834		4.589736		-5.900427		21.004151		-42.992996		-2.216842		2.885922		16.402699		0.530970		-1.772725		128.056631		-10.431758		37.891807		51.158308		71.406396		-28.700641		-0.626741		32.316991		122.576042		-3.652743		21.937081		59.321548		101.455844		-21.291952		11.462933		66.242573		
0.570379		-1.774511		-13.082521		87.894145		0.019809		1.893022		1.558520		41.431088		-8.885406		5.964335		-108.773935		-2.014142		-7.375833		14.000022		40.256142		-2.747008		3.152718		-111.118389		1.666449		-7.165657		24.421039		-43.711141		-2.192913		2.840601		15.837132		0.506033		-1.757066		127.735136		-10.367667		37.756657		50.951110		73.339100		-28.468195		-0.334036		32.446919		122.142948		-3.799038		21.854961		59.429782		101.663254		-20.252035		11.842719		65.113691		
0.573636		-1.804590		-12.835941		87.879185		0.019806		1.894780		1.552189		41.118436		-8.910714		5.963825		-108.454325		-3.783865		-7.610080		14.098476		40.036776		-2.757746		2.991847		-110.821883		-0.579227		-7.234875		24.324630		-43.693070		-2.227566		2.892453		15.087711		0.430706		-1.765322		127.440104		-10.668284		38.411512		50.983049		73.664897		-28.601805		-0.359388		32.310958		121.563233		-3.966514		22.076798		59.549971		101.623044		-20.095412		11.887353		65.152888		
0.576894		-1.796187		-12.472286		87.839946		0.019874		1.896747		1.545919		40.703189		-8.859720		5.930373		-108.086801		-5.659117		-8.105874		14.649669		39.725537		-2.785496		2.799077		-110.509740		-3.150875		-7.885489		24.300235		-43.847151		-2.245138		2.969557		14.466202		0.338745		-1.783213		127.219333		-10.886992		39.081556		50.943295		74.182999		-28.825618		-0.375322		32.101386		121.086226		-4.119858		22.247199		59.546635		101.559024		-19.878917		11.981003		65.139708		
0.580152		-1.781167		-12.174134		87.834426		0.020027		1.898435		1.539496		40.328309		-8.801022		5.918059		-107.764662		-6.880583		-7.982908		14.953917		39.466693		-2.862735		2.650961		-110.248183		-5.124488		-7.876778		24.195813		-43.882262		-2.272983		2.972026		13.623044		0.465444		-1.833489		126.846750		-11.178219		39.652232		51.020228		74.501555		-28.767918		-0.281296		32.091400		120.454171		-4.413547		22.578462		59.823351		101.543587		-19.650280		12.032768		65.201755		
0.583409		-1.760852		-11.874864		87.766747		0.020223		1.900084		1.533319		40.043389		-8.766285		5.857789		-107.455747		-7.975927		-7.883280		15.252329		39.277183		-2.949019		2.469626		-110.000899		-7.332561		-7.964679		23.993369		-43.965518		-2.310392		3.058076		12.950256		0.461102		-1.839621		126.535700		-11.406948		40.210584		51.062900		74.899437		-28.760497		-0.196112		32.062399		119.943727		-4.675053		22.875215		59.906388		101.528623		-19.440570		12.097540		65.254987		
0.586667		-2.018270		-11.419484		87.568742		0.020231		1.901981		1.527123		39.672371		-8.908995		6.151266		-107.117020		-9.559019		-8.341203		20.604160		38.907207		-2.731184		1.922487		-109.677022		-9.986651		-9.574315		23.959388		-44.269771		-2.617684		2.960799		12.511227		0.477097		-1.872033		126.179504		-11.454261		40.227138		51.015675		76.478123		-28.476900		0.191166		31.982267		119.498540		-4.893236		23.037848		59.955237		101.461783		-18.825333		12.052377		64.949177		
